<?xml version="1.0" encoding="UTF-8"?><svg id="a" xmlns="http://www.w3.org/2000/svg" viewBox="0 0 841.89 595.28"><defs><style>.b{fill:#fff;}.c{fill:#d38b81;}.d{fill:#373233;}</style></defs><circle class="c" cx="420.94" cy="297.64" r="286.59"/><g><g><path class="d" d="M194.87,366.78c-6.18-2.57-10.67-5.77-13.49-9.59-2.82-3.83-4.22-7.54-4.22-11.15,0-2.24,.46-4.29,1.39-6.15,1.04-2.02,2.46-3.03,4.26-3.03,.98,0,2.11,.3,3.36,.9,.11,.11,.16,.27,.16,.49,0,.16-.05,.33-.16,.49-1.91,2.08-2.87,4.59-2.87,7.54,0,3.66,1.45,7.16,4.35,10.5,2.62,3.06,6.56,5.36,11.81,6.89,3.44,.82,6.86,1.23,10.25,1.23,5.52,0,11.02-1.04,16.48-3.12,8.91-3.39,16.8-8.06,23.66-14.02,6.86-5.96,11.74-11.78,14.64-17.47,1.75-3.33,2.62-6.5,2.62-9.51,0-5.79-2.92-10.25-8.77-13.37-4.98-2.62-11.34-4.24-19.11-4.84-3.55-.27-6.18-.41-7.87-.41-3.99,0-8.12,.33-12.38,.98-2.9,5.85-5.71,12.03-8.45,18.53l-.25,.41c-2.95,6.67-4.43,11.86-4.43,15.58,0,1.86,.57,3.23,1.72,4.1,1.04,.66,1.56,1.18,1.56,1.56,0,.22-.14,.41-.41,.57-.71,.33-1.42,.49-2.13,.49-.55,0-1.09-.11-1.64-.33-3.66-1.2-5.49-4.1-5.49-8.69l.16-2.13c.71-6.56,2.73-13.58,6.07-21.08,.93-2.35,1.78-4.4,2.54-6.15-1.75-.11-2.84-.27-3.28-.49l-.16-.08c-.66-.27-1.24-.6-1.76-.98-.52-.38-.89-.98-1.11-1.8l-.16-.82c0-.87,.74-1.64,2.21-2.3,.98-.38,3.66-.96,8.04-1.72,2.19-4.37,4.76-9.35,7.71-14.93,5.9-11.1,9.29-17.17,10.17-18.21,.27-.16,.6-.25,.98-.25,.66,0,1.5,.25,2.54,.74,1.69,.77,2.84,1.72,3.44,2.87,.22,.38,.33,.77,.33,1.15,0,.6-.71,2.08-2.13,4.43-4.97,8.53-9.13,15.99-12.46,22.39,10.93-2.13,20.21-6.16,27.84-12.1,7.63-5.93,12.81-12.59,15.54-19.97,.16-.6,.25-1.18,.25-1.72,0-1.69-.96-3.01-2.87-3.94-2.57-1.15-5.38-1.86-8.45-2.13-2.46-.22-4.76-.33-6.89-.33-4.92,0-8.53,.44-10.82,1.31-7.16,1.7-14.35,4.18-21.57,7.46-2.46,1.26-5.17,2.76-8.12,4.51-3.5,2.08-5.69,3.55-6.56,4.43-.55,.71-1.15,1.07-1.8,1.07-1.09-.16-2.13-1.31-3.12-3.44-.05,0-.08-.03-.08-.08-.22-.44-.33-.85-.33-1.23,0-1.42,1.45-3.03,4.35-4.84,10.5-6.72,19.67-11.1,27.51-13.12,7.84-2.02,14.2-3.03,19.07-3.03s9.18,.66,13.45,1.97c7.33,2.35,10.99,7.08,10.99,14.19,0,2.57-.63,5.17-1.89,7.79-2.35,5.03-6.03,9.62-11.03,13.78-5,4.16-10.43,7.44-16.28,9.84l5.08,.82c9.13,2.24,15.96,5.96,20.5,11.15,3.61,4.26,5.41,9.1,5.41,14.52,0,7.11-3.31,14.54-9.92,22.31-5.36,6.34-12.1,11.8-20.21,16.36-8.12,4.56-16.88,7.31-26.28,8.24l-3.94,.08c-6.51,0-12.36-1.04-17.55-3.12Z"/><path class="d" d="M275.07,397.45c-3.5-.44-5.77-1.5-6.81-3.2-.66-.98-.98-2.27-.98-3.85,0-4.05,1.78-9.08,5.33-15.09,2.02-3.44,4.87-7.3,8.53-11.56,9.73-11.32,20.8-21.16,33.21-29.52l1.15-.82,.66-2.87c.38-1.91,.79-4.4,1.23-7.46,.33-2.35,.49-4.07,.49-5.17,0-.55-.01-1.17-.04-1.89-.03-.71-.05-1.33-.08-1.85-.03-.52-.07-.83-.12-.94-.11,0-.79,.49-2.05,1.48-1.64,1.31-3.36,2.95-5.17,4.92-1.31,1.48-3.12,3.58-5.41,6.31-3.72,4.43-6.21,7.22-7.46,8.36-2.46,2.19-4.78,3.28-6.97,3.28-1.75,0-3.5-.55-5.25-1.64-.44-.22-.85-.57-1.23-1.07-.93-1.09-1.39-2.73-1.39-4.92,0-2.73,.74-6.23,2.21-10.5,1.37-3.66,2.9-6.31,4.59-7.96,.66-.71,1.45-1.07,2.38-1.07,.44,0,.9,.08,1.39,.25,.82,.22,1.53,.56,2.13,1.02,.6,.46,.9,.89,.9,1.27,0,.27-.22,.63-.66,1.07-1.64,2.19-3.12,5.11-4.43,8.78-1.42,4.05-2.13,7.46-2.13,10.25v1.07l.16,.08c.38,0,1.23-.49,2.54-1.48,.66-.44,1.26-.9,1.8-1.39,1.37-1.2,4.02-4.15,7.96-8.86,3.44-4.1,6.15-7.11,8.12-9.02,2.68-2.57,4.95-3.85,6.81-3.85,.93,0,1.94,.27,3.03,.82,1.8,.82,2.9,2,3.28,3.53,.38,1.53,.57,3.12,.57,4.76s-.14,3.5-.41,5.74l-.49,4.43c1.42-.87,3.36-2.16,5.82-3.85,3.12-2.13,6.26-4.21,9.43-6.23,3.55-2.24,5.88-3.36,6.97-3.36,.93,0,1.86,.27,2.79,.82,.93,.55,1.39,1.01,1.39,1.39,0,.27-.25,.41-.74,.41l-1.23-.08c-.49,0-1.18,.19-2.05,.57-4.21,2.02-10.39,6.07-18.53,12.14-2.24,1.7-3.88,2.87-4.92,3.53l-.74,2.95c-3.23,13.5-8.01,25.48-14.35,35.92-4.98,8.25-10.25,14.54-15.83,18.86-4.32,3.39-8.58,5.22-12.79,5.5h-2.62Zm2.54-2.71c4.05-1.31,8.26-4.26,12.63-8.86,9.62-10.5,17.28-25.09,22.96-43.79,.22-.71,.38-1.31,.49-1.8l.16-.74-3.12,2.38c-6.34,4.92-12.49,10.5-18.45,16.73-5.25,5.47-9.43,10.47-12.55,15.01-3.06,4.7-5.17,9.05-6.31,13.04-.38,1.53-.57,2.92-.57,4.18,0,1.53,.33,2.76,.98,3.69,.38,.49,.71,.74,.98,.74,.49,0,1.42-.19,2.79-.57Z"/><path class="d" d="M462.45,368.09c-3.01-1.91-5.24-4.77-6.68-8.57-1.45-3.8-2.37-7.59-2.75-11.36-.38-3.77-.57-6.97-.57-9.59,0-7.6,.57-15.21,1.72-22.84s3.22-18.19,6.23-31.7c2.35-10.39,4.56-18.7,6.64-24.93l.25-.98c-.16,.05-2.08,2.9-5.74,8.53-3.44,5.36-6.45,10.2-9.02,14.52-1.69,2.84-3.75,6.42-6.15,10.74-2.24,4.05-4.32,7.71-6.23,10.99-4.21,7.38-7.49,13.2-9.84,17.47-2.52,4.59-4.38,7.82-5.58,9.68-1.2,1.86-2.32,3.2-3.36,4.02-1.26,1.2-2.73,1.8-4.43,1.8-2.46,0-4.24-.44-5.33-1.31-.93-.66-1.56-1.79-1.89-3.4-.33-1.61-.49-4.36-.49-8.24,0-3.12,.33-8.72,.98-16.81,.71-8.64,1.94-16.81,3.69-24.52,.22-.82,.38-1.5,.49-2.05l.16-.82c-.16,.16-4.18,8.12-12.05,23.86-5.08,10.17-9.13,18.03-12.14,23.58-3.01,5.55-5.91,10.48-8.69,14.8-6.94,10.82-11.89,16.95-14.84,18.37-.76,.33-1.67,.49-2.71,.49-1.42,0-2.43-.27-3.03-.82-.16-.11-.25-.25-.25-.41s.14-.35,.41-.57c1.2-.98,3.72-4.13,7.54-9.43,4.97-6.78,9.62-13.8,13.94-21.08,4.32-7.27,9.65-17.08,15.99-29.44l19.84-38.46c2.68-5.19,4.18-8.28,4.51-9.27,1.69-4.21,3.03-7.16,4.02-8.86,.6-.87,1.28-1.31,2.05-1.31,.6,0,1.31,.22,2.13,.66,.82,.44,1.23,.85,1.23,1.23,0,.6-.37,1.63-1.11,3.08-.74,1.45-1.22,2.45-1.43,2.99-.49,.93-1.53,3.88-3.12,8.86-2.13,6.67-4.02,14.79-5.66,24.36-.77,3.99-1.34,7.41-1.72,10.25-.88,6.45-1.53,13.89-1.97,22.31-.33,5.52-.49,9.92-.49,13.2,0,1.8,.05,2.76,.16,2.87,.22,0,1.17-1.3,2.87-3.9,1.69-2.6,5.82-9.47,12.38-20.62,4.04-6.94,7.19-12.41,9.43-16.4,3.22-5.69,6.25-10.78,9.06-15.29,2.82-4.51,6.3-9.91,10.46-16.2,6.18-9.24,9.79-14.21,10.82-14.92,.38-.16,.79-.25,1.23-.25,.66,0,1.39,.22,2.21,.66,1.09,.66,1.64,1.42,1.64,2.3,0,.55-.19,1.53-.57,2.95-.33,.98-.74,2.41-1.23,4.26-2.35,7.93-4.26,15.04-5.74,21.32-1.48,6.29-3.17,14.71-5.08,25.26-2.79,14.82-4.26,26.87-4.43,36.17v4.02c0,9.29,.9,16.59,2.71,21.89,1.04,3.23,2.6,5.08,4.67,5.58,1.15,.22,1.72,.52,1.72,.9,0,.16-.14,.34-.41,.53-.27,.19-.7,.36-1.27,.49-.57,.14-1.08,.21-1.52,.21-1.48,0-2.71-.27-3.69-.82Z"/><path class="d" d="M477.38,335.87c-1.2-.05-2.49-.44-3.85-1.15-2.57-1.2-3.85-2.95-3.85-5.25,0-.44,.05-.93,.16-1.48,.66-2.95,2.24-5.95,4.76-8.98,2.52-3.03,5.25-5.23,8.2-6.6,1.53-.66,3.03-1.04,4.51-1.15l1.56-.08c1.97,.16,3.83,.68,5.58,1.56l.49,.25c.49,.22,.85,.33,1.07,.33l.66-.16c1.15,0,2.58,.59,4.31,1.76,1.72,1.18,2.58,2.5,2.58,3.98,0,.6-.14,1.26-.41,1.97-.55,1.15-.96,2.43-1.23,3.85-.44,1.37-.66,2.57-.66,3.61,0,1.2,.52,1.8,1.56,1.8,1.31,0,3.12-.76,5.41-2.3,4.37-2.79,9.02-6.64,13.94-11.56,.44-.44,.93-.66,1.48-.66h.49c.33,0,.77,.1,1.31,.29,.55,.19,.92,.44,1.11,.74,.19,.3,.29,.53,.29,.7,0,.38-.22,.82-.66,1.31-2.3,2.68-5.02,5.37-8.16,8.08-3.14,2.71-6.36,4.93-9.64,6.68-2.02,.93-3.59,1.46-4.71,1.6-1.12,.14-1.85,.21-2.17,.21-1.53,0-2.99-.57-4.39-1.72-1.39-1.15-2.09-2.9-2.09-5.25,0-2.73,.66-5.6,1.97-8.61l.08-.25-.08-.08c-.33,0-2.21,1.83-5.66,5.49l-1.8,1.89c-3.12,3.61-5.47,6.01-7.05,7.22-.06,0-.08,.03-.08,.08-1.64,1.26-3.14,1.89-4.51,1.89h-.49Zm4.18-9.1l1.8-1.89c3.39-3.66,6.21-6.45,8.45-8.36,.38-.27,.57-.49,.57-.66s-.11-.25-.33-.25c-1.42,0-3.32,.81-5.7,2.42-2.38,1.61-4.58,3.68-6.6,6.19-.93,1.15-1.61,2.13-2.05,2.95-.87,1.59-1.31,2.62-1.31,3.12,0,.27,.14,.41,.41,.41,.77,0,2.35-1.31,4.76-3.94Z"/><path class="d" d="M516.82,337.67c-.33-.33-.49-.71-.49-1.15l.08-2.46c0-3.22,.55-6.92,1.64-11.07,1.2-4.65,2.76-8.5,4.67-11.56,.33-.66,.68-1.07,1.07-1.23,.38-.16,.76-.25,1.15-.25s.87,.07,1.48,.21c.6,.14,1.23,.36,1.89,.66,.66,.3,1.17,.64,1.56,1.03,.11,.16,.19,.27,.25,.33,.05,.05,.08,.14,.08,.25,0,.16-.03,.34-.08,.53-.06,.19-.19,.42-.41,.7-.44,.49-.85,1.04-1.23,1.64l-.08,.16c-.77,1.37-1.42,2.61-1.97,3.73-.55,1.12-1.07,2.5-1.56,4.14,4.26-6.34,8.01-10.66,11.24-12.96,2.02-1.37,3.72-2.05,5.08-2.05,2.13,0,3.47,.79,4.02,2.38,.22,.6,.44,1.72,.66,3.36,.05,.38,.38,.77,.98,1.15,.27,.16,.41,.33,.41,.49s-.22,.38-.66,.66c-.82,.33-1.56,.49-2.21,.49-.88,0-1.52-.12-1.93-.37-.41-.25-.73-.74-.94-1.48-.22-.74-.52-1.11-.9-1.11-.49,0-1.2,.25-2.13,.74-3.55,3.77-6.29,6.97-8.2,9.59-1.91,2.62-3.53,5.06-4.84,7.3-.98,1.59-2.02,3.2-3.12,4.84-.55,.82-.86,1.38-.94,1.68-.08,.3-.22,.48-.41,.53-.19,.05-.42,.08-.7,.08-1.31,0-2.46-.33-3.44-.98Z"/><path class="d" d="M548.56,342.67c-.16-1.75-.25-3.53-.25-5.33,0-8.36,2.19-18.56,6.56-30.59,2.68-7.27,5.55-14.24,8.61-20.91,2.08-4.7,4.73-10.03,7.95-15.99,2.13-3.88,4.51-7.49,7.13-10.82,2.9-3.66,5.63-5.49,8.2-5.49,1.31,0,2.41,.3,3.28,.9,1.37,.93,2.05,2,2.05,3.2l-.08,.9c-.93,4.54-3.48,10.82-7.67,18.86s-8.77,15.94-13.78,23.7c-5,7.76-9.12,13.48-12.34,17.14-2.19,7.44-3.31,12.55-3.36,15.33s-.08,4.29-.08,4.51c0,4.98,1.26,7.87,3.77,8.69,.27,.11,.6,.16,.98,.16,2.3,0,6.07-2.24,11.32-6.72,6.07-5.19,13.56-13.2,22.47-24.03,1.31-1.69,2.51-2.54,3.61-2.54,1.26,0,1.89,.68,1.89,2.05,0,.38-.19,.74-.57,1.07-.38,.33-.71,.74-.98,1.23-6.07,8.42-11.3,14.9-15.7,19.44-4.4,4.54-7.8,7.63-10.21,9.27l-3.61,2.46c-2.84,1.86-5.63,2.79-8.36,2.79-5.52,0-9.13-3.09-10.82-9.27Zm15.99-40.35c4.15-6.12,9.65-16.07,16.48-29.85,4.15-8.36,6.23-12.93,6.23-13.69,0-.27-.05-.41-.16-.41-.88,0-3.61,3.96-8.2,11.89-2.73,4.7-4.95,9.1-6.64,13.2l-.98,2.3c-.49,1.15-.93,2.08-1.31,2.79-.38,.71-1.45,3.2-3.2,7.46l-2.46,5.9-.33,.98h.08c.05,0,.22-.19,.49-.57Z"/><path class="d" d="M594.64,341.77c-5.03-.71-7.76-3.5-8.2-8.37v-.66c0-1.75,.3-3.72,.9-5.9,1.15-3.61,2.57-7.05,4.26-10.33,2.08-4.15,3.77-6.23,5.08-6.23,.98,0,2.05,.3,3.2,.9,.82,.49,1.31,.98,1.48,1.48l.08,.49c-.05,.11-.16,.26-.33,.45s-.52,.83-1.07,1.93c-.55,1.09-1.15,2.32-1.8,3.69-.66,1.37-1.2,2.62-1.64,3.77-2.41,5.69-3.61,9.95-3.61,12.79,0,1.31,.22,2.27,.66,2.87,.05,.11,.11,.16,.16,.16l1.15-.25c3.06-1.2,6.81-4.43,11.23-9.68,1.91-2.24,4.76-5.85,8.53-10.83,1.31-1.75,2.24-2.76,2.79-3.03,.11-.05,.44-.08,.98-.08,.71,.06,1.37,.25,1.97,.57s.9,.66,.9,.98c-.05,.05-.12,.14-.21,.25-.08,.11-.21,.22-.37,.33-.16,.11-1.2,1.42-3.12,3.94-4.54,6.18-7.46,10-8.77,11.48-5.14,6.23-9.4,9.35-12.79,9.35-.6,0-1.09-.03-1.48-.08Zm10.33-39.45c-1.37-.27-2.46-.71-3.28-1.31-.44-.33-.67-.56-.7-.7-.03-.14-.04-.31-.04-.53,.05-.49,.22-.98,.49-1.48,.27-.49,.55-.81,.82-.94,.27-.14,.49-.22,.66-.25,.16-.03,.44-.04,.82-.04,.93,.11,1.83,.36,2.71,.74,.87,.38,1.48,.82,1.8,1.31l.33,.49-.66,1.07c-.38,.77-.75,1.24-1.11,1.43-.36,.19-.73,.29-1.11,.29l-.74-.08Z"/><path class="d" d="M571.6,397.45c-3.5-.44-5.77-1.5-6.81-3.2-.66-.98-.98-2.27-.98-3.85,0-4.16,1.78-9.18,5.33-15.09,2.02-3.44,4.84-7.3,8.45-11.56,9.46-11.15,20.94-21.27,34.44-30.34,1.48-7.93,2.46-14.87,2.95-20.83v-.33c.11-.66,.38-1.15,.82-1.48l.82-.25c1.8,0,3.33,.71,4.59,2.13,.49,.6,.74,1.04,.74,1.31,0,.22-.22,.36-.66,.41-.11,.06-.19,.1-.25,.12-.06,.03-.08,.12-.08,.29-.38,5.58-1.04,10.28-1.97,14.11,1.26-.82,3.61-2.87,7.05-6.15l7.54-6.89c.55-.49,1.15-.74,1.8-.74,.82,0,1.38,.19,1.68,.57,.3,.38,.45,.74,.45,1.07,0,.82-.38,1.42-1.15,1.8-.44,.22-.88,.52-1.31,.9-4.21,4.21-8.56,8.23-13.04,12.05-2.24,1.91-3.72,3.12-4.43,3.61-3.23,14.54-8.17,27.2-14.84,37.97-4.87,8.15-10.14,14.43-15.83,18.86-4.32,3.44-8.56,5.28-12.71,5.5h-2.62Zm2.54-2.71c4.05-1.31,8.26-4.26,12.63-8.86,9.62-10.5,17.28-25.09,22.96-43.79l.66-2.54c-6.61,4.92-12.93,10.33-18.94,16.24-11.7,11.48-18.86,21.79-21.49,30.92-.38,1.53-.57,2.92-.57,4.18,0,1.48,.33,2.71,.98,3.69,.33,.49,.63,.74,.9,.74,.55,0,1.5-.19,2.87-.57Zm50.27-92.91c-1.2-.11-2.33-.55-3.36-1.31-.33-.27-.52-.49-.57-.66-.06-.16-.08-.35-.08-.57,0-.49,.14-.98,.41-1.48,.27-.49,.6-.82,.98-.98,.16-.11,.33-.18,.49-.2,.16-.03,.3-.04,.41-.04,.98,0,1.98,.22,2.99,.66,1.01,.44,1.68,.9,2.01,1.39l.33,.49c-.82,1.48-1.41,2.31-1.76,2.5-.36,.19-.75,.29-1.19,.29l-.66-.08Z"/><path class="d" d="M657.63,331.93c.16,0,.53-.14,1.11-.41,.57-.27,1.16-.57,1.76-.9,1.42-.82,3.94-3.42,7.54-7.79,1.64-1.97,2.8-3.4,3.49-4.31,.68-.9,1.13-1.6,1.35-2.09,.11-.27,.22-.49,.33-.66,.11-.16,.19-.27,.25-.33s.14-.08,.25-.08c.55,0,1.15,.14,1.8,.41,.66,.27,1.07,.57,1.23,.9,.44,.6-.46,2.46-2.71,5.58-1.37,1.91-2.94,3.9-4.72,5.95s-3.21,3.54-4.3,4.47c-1.26,1.04-2.38,1.72-3.36,2.05-.6,.16-1.3,.27-2.09,.33-.79,.05-1.38,.05-1.76,0-.88-.22-1.71-.55-2.5-.98-.79-.44-1.44-.9-1.93-1.39-.88-.82-1.5-1.91-1.89-3.28-.27-1.04-.36-2.35-.25-3.94,.11-1.58,.36-3.03,.74-4.35,.22-.82,.41-1.56,.57-2.21,.44-1.58,.42-2.47-.04-2.67-.46-.19-1.71,.75-3.73,2.83-1.91,2.02-3.83,4.43-5.74,7.22-.98,1.31-2,2.62-3.03,3.94-1.7,2.24-3.03,3.87-4.02,4.88-.98,1.01-1.89,1.59-2.71,1.72-.82,.14-1.75-.01-2.79-.45-1.31-.54-2.13-1.31-2.46-2.3-.05-.22-.09-.44-.12-.66-.03-.22-.03-.52,0-.9,.03-.38,.1-.96,.21-1.72,.44-3.72,1.67-7.76,3.69-12.14,1.97-3.88,3.55-6.1,4.76-6.64,.16-.05,.3-.09,.41-.12,.11-.03,.25-.03,.41,0,.16,.03,.38,.04,.66,.04,.87,.16,1.68,.41,2.42,.74s1.3,.71,1.68,1.15c.11,.16,.19,.33,.25,.49,.05,.16,.08,.27,.08,.33,0,.16-.14,.44-.41,.82-.27,.38-.56,.78-.86,1.19-.3,.41-.53,.64-.7,.7-.16,.16-.52,.78-1.07,1.84-.55,1.07-1.12,2.2-1.72,3.4-.27,.6-.55,1.15-.82,1.64-.33,.71-.68,1.49-1.07,2.34-.38,.85-.71,1.6-.98,2.25-.27,.66-.38,1.01-.33,1.07,.11-.22,.81-1.2,2.09-2.95,1.28-1.75,2.87-3.77,4.76-6.07,1.89-2.3,3.83-4.4,5.82-6.31,2-1.91,3.81-3.17,5.45-3.77,1.04-.44,2.3-.3,3.77,.41,.98,.49,1.61,1.07,1.89,1.72,.11,.11,.16,.25,.16,.41v.61c0,.25-.03,.59-.08,1.03-.11,.44-.21,.92-.29,1.44-.08,.52-.18,.97-.29,1.35-.71,4.48-1.07,7.97-1.07,10.46s.3,3.73,.9,3.73Z"/></g><path class="b" d="M357.46,313.35c-2.49-.74-4.82-.4-6.99,1-.25,.16-.49,.35-.71,.55-1.2,1.11-1.19,2.04,.06,3.13,1.12,.97,2.43,1.49,3.88,1.64,.21,.02,.41,.03,.62,.06,.04,0,.07,.05,.14,.12-2.37,.47-4.47-.11-6.39-1.57-.5,3.94,2.73,7.18,6.75,6.88,2.03-.15,3.78-1,5.47-2.04,1.43-.87,2.87-1.7,4.58-1.9,.69-.08,1.37,.01,2.17,.15-2.64-3.51-5.32-6.75-9.58-8.02Z"/></g></svg>